{
  "metadata": {
    "exportDate": "2025-09-02",
    "exportTime": "21:24:28",
    "source": "MIDI Editor",
    "format": "decoupled-timing"
  },
  "layers": {
    "layer0": {
      "metadata": {
        "durationType": "fractional",
        "totalDuration": 2.9699900793650795,
        "key": "F",
        "scale": "phrygian"
      },
      "notes": [
        {
          "midi": 70,
          "vel": 0.6299212598425197,
          "dur": 1.0
        }
      ],
      "timing": [
        0.0,
        1.0
      ]
    },
    "layer1": {
      "metadata": {
        "durationType": "fractional",
        "totalDuration": 1.65,
        "key": "F",
        "scale": "phrygian"
      },
      "notes": [
        {
          "midi": 82,
          "vel": 0.6299212598425197,
          "dur": 1.0
        },
        {
          "midi": 82,
          "vel": 0.6299212598425197,
          "dur": 1.0
        },
        {
          "midi": 82,
          "vel": 0.6299212598425197,
          "dur": 1.0
        },
        {
          "midi": 82,
          "vel": 0.6299212598425197,
          "dur": 1.0
        },
        {
          "midi": 82,
          "vel": 0.6299212598425197,
          "dur": 1.0
        }
      ],
      "timing": [
        0.0,
        0.20000601250601252,
        0.20000601250601252,
        0.19997594997595003,
        0.20000601250601252,
        0.20000601250601244
      ]
    },
    "layer2": {
      "metadata": {
        "durationType": "fractional",
        "totalDuration": 0.9519345238095238,
        "key": "F",
        "scale": "phrygian"
      },
      "notes": [
        {
          "midi": 87,
          "vel": 0.6299212598425197,
          "dur": 1.0
        },
        {
          "midi": 87,
          "vel": 0.6299212598425197,
          "dur": 1.0
        },
        {
          "midi": 87,
          "vel": 0.6299212598425197,
          "dur": 1.0
        },
        {
          "midi": 87,
          "vel": 0.6299212598425197,
          "dur": 1.0
        },
        {
          "midi": 87,
          "vel": 0.6299212598425197,
          "dur": 1.0
        },
        {
          "midi": 87,
          "vel": 0.6299212598425197,
          "dur": 1.0
        },
        {
          "midi": 87,
          "vel": 0.6299212598425197,
          "dur": 1.0
        },
        {
          "midi": 87,
          "vel": 0.6299212598425197,
          "dur": 1.0
        },
        {
          "midi": 87,
          "vel": 0.6299212598425197,
          "dur": 1.0
        },
        {
          "midi": 87,
          "vel": 0.6299212598425197,
          "dur": 1.0
        },
        {
          "midi": 87,
          "vel": 0.6299212598425197,
          "dur": 1.0
        },
        {
          "midi": 87,
          "vel": 0.6299212598425197,
          "dur": 1.0
        },
        {
          "midi": 87,
          "vel": 0.6299212598425197,
          "dur": 1.0
        },
        {
          "midi": 87,
          "vel": 0.6299212598425197,
          "dur": 1.0
        },
        {
          "midi": 87,
          "vel": 0.6299212598425197,
          "dur": 1.0
        },
        {
          "midi": 87,
          "vel": 0.6299212598425197,
          "dur": 1.0
        },
        {
          "midi": 87,
          "vel": 0.6299212598425197,
          "dur": 1.0
        },
        {
          "midi": 87,
          "vel": 0.6299212598425197,
          "dur": 1.0
        },
        {
          "midi": 87,
          "vel": 0.6299212598425197,
          "dur": 1.0
        },
        {
          "midi": 87,
          "vel": 0.6299212598425197,
          "dur": 1.0
        },
        {
          "midi": 87,
          "vel": 0.6299212598425197,
          "dur": 1.0
        },
        {
          "midi": 87,
          "vel": 0.6299212598425197,
          "dur": 1.0
        },
        {
          "midi": 87,
          "vel": 0.6299212598425197,
          "dur": 1.0
        },
        {
          "midi": 87,
          "vel": 0.6299212598425197,
          "dur": 1.0
        },
        {
          "midi": 87,
          "vel": 0.6299212598425197,
          "dur": 1.0
        }
      ],
      "timing": [
        0.0,
        0.04001875879318431,
        0.039966651034339,
        0.04001875879318431,
        0.04001875879318429,
        0.03996665103433902,
        0.04001875879318431,
        0.03996665103433902,
        0.04001875879318428,
        0.04001875879318434,
        0.03996665103433899,
        0.04001875879318434,
        0.04001875879318428,
        0.039966651034339044,
        0.04001875879318434,
        0.039966651034338926,
        0.04001875879318428,
        0.040018758793184395,
        0.039966651034338926,
        0.040018758793184395,
        0.04001875879318428,
        0.039966651034339044,
        0.04001875879318428,
        0.04001875879318428,
        0.039966651034339044,
        0.04001875879318428
      ]
    }
  }
}